G04 #@! TF.GenerationSoftware,KiCad,Pcbnew,(6.0.5)*
G04 #@! TF.CreationDate,2022-12-29T12:01:20-08:00*
G04 #@! TF.ProjectId,micro-motor-proto-02,6d696372-6f2d-46d6-9f74-6f722d70726f,rev?*
G04 #@! TF.SameCoordinates,Original*
G04 #@! TF.FileFunction,Copper,L1,Top*
G04 #@! TF.FilePolarity,Positive*
%FSLAX46Y46*%
G04 Gerber Fmt 4.6, Leading zero omitted, Abs format (unit mm)*
G04 Created by KiCad (PCBNEW (6.0.5)) date 2022-12-29 12:01:20*
%MOMM*%
%LPD*%
G01*
G04 APERTURE LIST*
G04 #@! TA.AperFunction,ComponentPad*
%ADD10R,1.700000X1.700000*%
G04 #@! TD*
G04 #@! TA.AperFunction,ComponentPad*
%ADD11O,1.700000X1.700000*%
G04 #@! TD*
G04 #@! TA.AperFunction,ViaPad*
%ADD12C,0.650000*%
G04 #@! TD*
G04 #@! TA.AperFunction,Conductor*
%ADD13C,0.203200*%
G04 #@! TD*
G04 #@! TA.AperFunction,Conductor*
%ADD14C,0.250000*%
G04 #@! TD*
G04 APERTURE END LIST*
D10*
X37986052Y-76188129D03*
D11*
X37986052Y-78728129D03*
D10*
X51386052Y-76123129D03*
D11*
X51386052Y-78663129D03*
D10*
X44756885Y-76090187D03*
D11*
X44756885Y-78630187D03*
D10*
X58361052Y-76263129D03*
D11*
X58361052Y-78803129D03*
D12*
X47434500Y-56705500D03*
X41211500Y-50482500D03*
X47511676Y-44245415D03*
X53657500Y-50482500D03*
D13*
X47709381Y-54210350D02*
X44593103Y-57326628D01*
X53192144Y-57681534D02*
X47997070Y-52486461D01*
X52651896Y-57644180D02*
X47882792Y-52875077D01*
X47709382Y-55719033D02*
X46648075Y-56780341D01*
X52097522Y-57592701D02*
X47756467Y-53251646D01*
X47010192Y-51389278D02*
X40678730Y-57720741D01*
X48999395Y-57009046D02*
X47709382Y-55719033D01*
X47709381Y-53707455D02*
X43979387Y-57437450D01*
X51526717Y-57524792D02*
X47709381Y-53707455D01*
X54744528Y-57725236D02*
X48200963Y-51181669D01*
X47102879Y-51799486D02*
X41195795Y-57706570D01*
X47499556Y-52911491D02*
X42818348Y-57592701D01*
X47354443Y-52553711D02*
X42263973Y-57644181D01*
D14*
X51386052Y-76123129D02*
X51386052Y-61083712D01*
D13*
X54237139Y-57720741D02*
X48168649Y-51652251D01*
X53720073Y-57706570D02*
X48094961Y-52081458D01*
D14*
X51386052Y-61083712D02*
X54744528Y-57725236D01*
D13*
X50936481Y-57437449D02*
X47709381Y-54210350D01*
X47220665Y-52184595D02*
X41723726Y-57681534D01*
X50322765Y-57326628D02*
X47709382Y-54713244D01*
X47653252Y-53260691D02*
X43389151Y-57524792D01*
X46648075Y-56780341D02*
X47709382Y-56602458D01*
X49679881Y-57186638D02*
X47709382Y-55216138D01*
X47709382Y-54713244D02*
X45235987Y-57186639D01*
X47709382Y-55216138D02*
X45916474Y-57009045D01*
X49679875Y-57186619D02*
G75*
G02*
X45235987Y-57186639I-2221975J6748019D01*
G01*
X47499556Y-52911487D02*
G75*
G03*
X47882792Y-52875077I-41556J2472487D01*
G01*
X52097522Y-57592701D02*
G75*
G02*
X42818348Y-57592701I-4639587J7154062D01*
G01*
X50936480Y-57437447D02*
G75*
G02*
X43979387Y-57437450I-3478550J6998787D01*
G01*
X52651893Y-57644176D02*
G75*
G02*
X42263974Y-57644180I-5193963J7205536D01*
G01*
X48999391Y-57009029D02*
G75*
G02*
X45916474Y-57009044I-1541491J6570429D01*
G01*
X51526717Y-57524792D02*
G75*
G02*
X43389151Y-57524792I-4068783J7086153D01*
G01*
X47010179Y-51389305D02*
G75*
G03*
X48200963Y-51181669I447721J950705D01*
G01*
X54237139Y-57720741D02*
G75*
G02*
X40678730Y-57720741I-6779204J7282099D01*
G01*
X47102873Y-51799507D02*
G75*
G03*
X48168649Y-51652251I355027J1360907D01*
G01*
X47354442Y-52553723D02*
G75*
G03*
X47997070Y-52486460I103458J2115023D01*
G01*
X47220663Y-52184609D02*
G75*
G03*
X48094961Y-52081458I237237J1746009D01*
G01*
X53720073Y-57706570D02*
G75*
G02*
X41195795Y-57706570I-6262139J7267928D01*
G01*
X53192143Y-57681533D02*
G75*
G02*
X41723727Y-57681533I-5734208J7242894D01*
G01*
X47653252Y-53260691D02*
G75*
G03*
X47756467Y-53251646I-195352J2822591D01*
G01*
X50322765Y-57326627D02*
G75*
G02*
X44593103Y-57326627I-2864831J6887992D01*
G01*
X45342865Y-50335150D02*
X40252395Y-45244680D01*
X40252396Y-55632603D02*
X45021500Y-50863500D01*
X43183333Y-50690089D02*
X40709938Y-48216696D01*
X45711983Y-50201373D02*
X40215042Y-44704434D01*
X40887531Y-51980103D02*
X42177544Y-50690089D01*
X46507299Y-49990902D02*
X40175836Y-43659437D01*
X40459126Y-53917189D02*
X43686227Y-50690090D01*
X40171340Y-57725236D02*
X46714907Y-51181670D01*
D14*
X44767500Y-62420500D02*
X40132000Y-57785000D01*
D13*
X41116237Y-49628782D02*
X41294118Y-50690089D01*
X40215042Y-56172852D02*
X45410116Y-50977778D01*
D14*
X44767500Y-76073000D02*
X44767500Y-62420500D01*
X44756885Y-76090187D02*
X44756885Y-76083615D01*
D13*
X44635886Y-50633959D02*
X40371785Y-46369859D01*
X40190006Y-56700781D02*
X45815120Y-51075668D01*
X42177544Y-50690089D02*
X41116237Y-49628782D01*
X44985084Y-50480264D02*
X40303876Y-45799055D01*
X40569949Y-53303474D02*
X43183333Y-50690089D01*
X46097091Y-50083586D02*
X40190007Y-44176503D01*
X44189121Y-50690089D02*
X40459127Y-46960095D01*
X40709938Y-52660589D02*
X42680438Y-50690089D01*
X40175836Y-57217846D02*
X46244326Y-51149357D01*
X43686227Y-50690090D02*
X40569949Y-47573811D01*
D14*
X44756885Y-76083615D02*
X44767500Y-76073000D01*
D13*
X40303876Y-55078229D02*
X44644931Y-50737174D01*
X40371785Y-54507425D02*
X44189121Y-50690089D01*
X42680438Y-50690089D02*
X40887531Y-48897181D01*
X40709940Y-52660588D02*
G75*
G02*
X40709938Y-48216696I6748030J2221948D01*
G01*
X40175838Y-57217844D02*
G75*
G02*
X40175836Y-43659437I7282092J6779204D01*
G01*
X45711961Y-50201370D02*
G75*
G03*
X45815120Y-51075668I1745939J-237230D01*
G01*
X40215045Y-56172849D02*
G75*
G02*
X40215042Y-44704434I7242895J5734209D01*
G01*
X40371787Y-54507424D02*
G75*
G02*
X40371786Y-46369859I7086153J4068784D01*
G01*
X46097057Y-50083577D02*
G75*
G03*
X46244327Y-51149357I1360843J-355023D01*
G01*
X40459129Y-53917188D02*
G75*
G02*
X40459127Y-46960095I6998811J3478548D01*
G01*
X40887532Y-51980103D02*
G75*
G02*
X40887532Y-48897181I6570428J1541463D01*
G01*
X46507249Y-49990879D02*
G75*
G03*
X46714907Y-51181670I950651J-447721D01*
G01*
X44635887Y-50633959D02*
G75*
G03*
X44644932Y-50737174I2822613J195359D01*
G01*
X40190009Y-56700778D02*
G75*
G02*
X40190008Y-44176504I7267921J6262138D01*
G01*
X40252398Y-55632602D02*
G75*
G02*
X40252396Y-45244681I7205542J5193962D01*
G01*
X44985078Y-50480264D02*
G75*
G03*
X45021500Y-50863500I2472822J41664D01*
G01*
X40569951Y-53303473D02*
G75*
G02*
X40569949Y-47573811I6887979J2864833D01*
G01*
X40303878Y-55078227D02*
G75*
G02*
X40303877Y-45799055I7154062J4639587D01*
G01*
X45342852Y-50335149D02*
G75*
G03*
X45410117Y-50977778I2115048J-103451D01*
G01*
X47200514Y-46672724D02*
X50316792Y-43556445D01*
X47555453Y-48329361D02*
X52645922Y-43238892D01*
X40672756Y-43162332D02*
X46741246Y-49230823D01*
D14*
X37986052Y-56401052D02*
X36449000Y-54864000D01*
D13*
X42257999Y-43238892D02*
X47027102Y-48007997D01*
X47899702Y-49493796D02*
X54231165Y-43162332D01*
X48261820Y-44102733D02*
X47200512Y-44280615D01*
X47200513Y-46169829D02*
X49673908Y-43696435D01*
X47256643Y-47622383D02*
X51520743Y-43358282D01*
X40165367Y-43157838D02*
X46708933Y-49701403D01*
X42812373Y-43290372D02*
X47153429Y-47631428D01*
X45910500Y-43874027D02*
X47200513Y-45164040D01*
X47807016Y-49083587D02*
X53714100Y-43176504D01*
X47200513Y-45666935D02*
X48993421Y-43874028D01*
X43973413Y-43445624D02*
X47200514Y-46672724D01*
X47410340Y-47971581D02*
X52091548Y-43290373D01*
X45230013Y-43696435D02*
X47200513Y-45666935D01*
D14*
X36449000Y-46736000D02*
X40027162Y-43157838D01*
D13*
X44587129Y-43556445D02*
X47200513Y-46169829D01*
D14*
X37986052Y-76188129D02*
X37986052Y-56401052D01*
D13*
X41717751Y-43201538D02*
X46912824Y-48396612D01*
X47200514Y-47175618D02*
X50930509Y-43445624D01*
X47689230Y-48698479D02*
X53186170Y-43201539D01*
X41189822Y-43176504D02*
X46814935Y-48801617D01*
D14*
X40027162Y-43157838D02*
X40275249Y-43157838D01*
D13*
X43383177Y-43358282D02*
X47200514Y-47175618D01*
D14*
X36449000Y-54864000D02*
X36449000Y-46736000D01*
D13*
X47200513Y-45164040D02*
X48261820Y-44102733D01*
X47256643Y-47622384D02*
G75*
G03*
X47153429Y-47631428I195357J-2822816D01*
G01*
X47899724Y-49493750D02*
G75*
G03*
X46708934Y-49701404I-447724J-950650D01*
G01*
X47807024Y-49083556D02*
G75*
G03*
X46741246Y-49230824I-355024J-1360844D01*
G01*
X41717751Y-43201539D02*
G75*
G02*
X53186170Y-43201539I5734209J-7242891D01*
G01*
X43383177Y-43358283D02*
G75*
G02*
X51520743Y-43358283I4068783J-7086145D01*
G01*
X40672757Y-43162333D02*
G75*
G02*
X54231165Y-43162332I6779204J-7282098D01*
G01*
X42258000Y-43238893D02*
G75*
G02*
X52645922Y-43238893I5193961J-7205543D01*
G01*
X47555453Y-48329351D02*
G75*
G03*
X46912824Y-48396612I-103453J-2115149D01*
G01*
X47410340Y-47971576D02*
G75*
G03*
X47027102Y-48007998I41660J-2472824D01*
G01*
X45910504Y-43874046D02*
G75*
G02*
X48993421Y-43874028I1541496J-6570354D01*
G01*
X41189822Y-43176504D02*
G75*
G02*
X53714100Y-43176504I6262139J-7267924D01*
G01*
X45230013Y-43696436D02*
G75*
G02*
X49673908Y-43696436I2221948J-6748017D01*
G01*
X47689233Y-48698459D02*
G75*
G03*
X46814935Y-48801617I-237233J-1745941D01*
G01*
X44587129Y-43556445D02*
G75*
G02*
X50316792Y-43556445I2864831J-6887982D01*
G01*
X42812373Y-43290373D02*
G75*
G02*
X52091548Y-43290373I4639587J-7154057D01*
G01*
X43973413Y-43445624D02*
G75*
G02*
X50930509Y-43445624I3478548J-6998802D01*
G01*
X52738326Y-50187195D02*
X53799632Y-51248502D01*
X50279984Y-50243325D02*
X54544084Y-54507424D01*
X54345921Y-47573811D02*
X51732536Y-50187195D01*
X51229642Y-50187196D02*
X54345920Y-53303473D01*
X53799632Y-51248502D02*
X53621750Y-50187196D01*
X54663473Y-45244680D02*
X49894369Y-50013786D01*
X49573004Y-50542134D02*
X54663474Y-55632603D01*
X49930784Y-50397021D02*
X54611993Y-55078229D01*
X49203887Y-50675911D02*
X54700826Y-56172851D01*
D14*
X58361052Y-76263129D02*
X58361052Y-46613552D01*
D13*
X50726748Y-50187195D02*
X54456742Y-53917190D01*
X51732536Y-50187195D02*
X54205930Y-52660589D01*
X52235431Y-50187195D02*
X54028338Y-51980102D01*
X54205931Y-48216695D02*
X52235431Y-50187195D01*
X54740033Y-43659437D02*
X48671543Y-49727928D01*
X54456742Y-46960095D02*
X51229642Y-50187196D01*
D14*
X58361052Y-46613552D02*
X54864000Y-43116500D01*
D13*
X54700826Y-44704434D02*
X49505753Y-49899506D01*
X54611993Y-45799055D02*
X50270939Y-50140110D01*
X48408569Y-50886383D02*
X54740034Y-57217846D01*
X54544085Y-46369859D02*
X50726748Y-50187195D01*
X54725862Y-44176503D02*
X49100749Y-49801616D01*
X54028338Y-48897182D02*
X52738326Y-50187195D01*
X54744528Y-43152048D02*
X48200962Y-49695614D01*
X48818779Y-50793697D02*
X54725863Y-56700781D01*
X54611994Y-45799054D02*
G75*
G02*
X54611992Y-55078228I-7154064J-4639586D01*
G01*
X54725864Y-44176501D02*
G75*
G02*
X54725863Y-56700781I-7267924J-6262139D01*
G01*
X54205931Y-48216695D02*
G75*
G02*
X54205930Y-52660589I-6748001J-2221945D01*
G01*
X54028338Y-48897182D02*
G75*
G02*
X54028337Y-51980102I-6570418J-1541458D01*
G01*
X54740035Y-43659435D02*
G75*
G02*
X54740034Y-57217846I-7282095J-6779205D01*
G01*
X54700828Y-44704432D02*
G75*
G02*
X54700826Y-56172851I-7242898J-5734208D01*
G01*
X49930780Y-50397021D02*
G75*
G03*
X49894368Y-50013786I-2472580J-41579D01*
G01*
X54663474Y-45244679D02*
G75*
G02*
X54663473Y-55632603I-7205534J-5193961D01*
G01*
X49203863Y-50675908D02*
G75*
G03*
X49100749Y-49801616I-1745963J237308D01*
G01*
X54544085Y-46369859D02*
G75*
G02*
X54544083Y-54507424I-7086145J-4068781D01*
G01*
X54345921Y-47573811D02*
G75*
G02*
X54345919Y-53303473I-6887991J-2864829D01*
G01*
X48408520Y-50886360D02*
G75*
G03*
X48200962Y-49695614I-950620J447760D01*
G01*
X50279984Y-50243325D02*
G75*
G03*
X50270938Y-50140110I-2822584J-195375D01*
G01*
X48818744Y-50793688D02*
G75*
G03*
X48671543Y-49727928I-1360844J355088D01*
G01*
X49572990Y-50542133D02*
G75*
G03*
X49505753Y-49899506I-2115090J103533D01*
G01*
X54456743Y-46960094D02*
G75*
G02*
X54456741Y-53917190I-6998803J-3478546D01*
G01*
M02*
