M48
INCH,TZ
T1C0.0118
T2C0.0157
T3C0.0394
%
G90
G05
T1
X16539Y-19783
X18867Y-17258
X19065Y-22111
X21393Y-19585
X29994Y-19761
X30815Y-17626
X30923Y-21851
X32906Y-16697
X33057Y-22673
X35041Y-17519
X35148Y-21744
X35970Y-19609
X45102Y-20867
X46863Y-17314
X49059Y-20615
X58678Y-18315
X58678Y-21024
X61024Y-16961
X61024Y-22379
X63370Y-18315
X63370Y-21024
T2
X27500Y-28400
X31600Y-15600
X32400Y-14800
X32400Y-28400
X34100Y-13900
X34100Y-15500
X34800Y-27900
X36800Y-22000
X37000Y-18200
X37400Y-17600
X37600Y-32200
X38700Y-18200
T3
X14955Y-29995
X14955Y-30995
X17621Y-29957
X17621Y-30957
X20231Y-29970
X20231Y-30970
X22977Y-30025
X22977Y-31025
X28731Y-29989
X28731Y-30989
X31565Y-29989
X31565Y-30989
X34399Y-29989
X34399Y-30989
X37232Y-29989
X37232Y-30989
X44109Y-29989
X44109Y-30989
X46997Y-29989
X46997Y-30989
X49886Y-29989
X49886Y-30989
X55232Y-29989
X55232Y-30989
X57544Y-29989
X57544Y-30989
X59857Y-29989
X59857Y-30989
X62169Y-29989
X62169Y-30989
X64482Y-29989
X64482Y-30989
X66794Y-29989
X66794Y-30989
T0
M30
