G04 #@! TF.GenerationSoftware,KiCad,Pcbnew,(6.0.5)*
G04 #@! TF.CreationDate,2022-07-10T09:17:23-07:00*
G04 #@! TF.ProjectId,micro-motor-proto-01,6d696372-6f2d-46d6-9f74-6f722d70726f,rev?*
G04 #@! TF.SameCoordinates,Original*
G04 #@! TF.FileFunction,Copper,L1,Top*
G04 #@! TF.FilePolarity,Positive*
%FSLAX46Y46*%
G04 Gerber Fmt 4.6, Leading zero omitted, Abs format (unit mm)*
G04 Created by KiCad (PCBNEW (6.0.5)) date 2022-07-10 09:17:23*
%MOMM*%
%LPD*%
G01*
G04 APERTURE LIST*
G04 #@! TA.AperFunction,ComponentPad*
%ADD10O,1.700000X1.700000*%
G04 #@! TD*
G04 #@! TA.AperFunction,ComponentPad*
%ADD11R,1.700000X1.700000*%
G04 #@! TD*
G04 #@! TA.AperFunction,ViaPad*
%ADD12C,0.800000*%
G04 #@! TD*
G04 #@! TA.AperFunction,ViaPad*
%ADD13C,0.650000*%
G04 #@! TD*
G04 #@! TA.AperFunction,Conductor*
%ADD14C,0.250000*%
G04 #@! TD*
G04 #@! TA.AperFunction,Conductor*
%ADD15C,0.203200*%
G04 #@! TD*
G04 APERTURE END LIST*
D10*
G04 #@! TO.P,J17,2,Pin_2*
G04 #@! TO.N,/3-6 PhF*
X169657320Y-78711658D03*
D11*
G04 #@! TO.P,J17,1,Pin_1*
X169657320Y-76171658D03*
G04 #@! TD*
G04 #@! TO.P,J5,1,Pin_1*
G04 #@! TO.N,/2-8 PhA*
X94570245Y-76171658D03*
D10*
G04 #@! TO.P,J5,2,Pin_2*
X94570245Y-78711658D03*
G04 #@! TD*
D11*
G04 #@! TO.P,J3,1,Pin_1*
G04 #@! TO.N,/2 PhC*
X37986052Y-76188129D03*
D10*
G04 #@! TO.P,J3,2,Pin_2*
X37986052Y-78728129D03*
G04 #@! TD*
D11*
G04 #@! TO.P,J6,1,Pin_1*
G04 #@! TO.N,/2-8 PhB*
X87372373Y-76171658D03*
D10*
G04 #@! TO.P,J6,2,Pin_2*
X87372373Y-78711658D03*
G04 #@! TD*
G04 #@! TO.P,J13,2,Pin_2*
G04 #@! TO.N,/3-6 PhB*
X157910033Y-78711658D03*
D11*
G04 #@! TO.P,J13,1,Pin_1*
X157910033Y-76171658D03*
G04 #@! TD*
D10*
G04 #@! TO.P,J14,2,Pin_2*
G04 #@! TO.N,/3-6 PhC*
X152036391Y-78711658D03*
D11*
G04 #@! TO.P,J14,1,Pin_1*
X152036391Y-76171658D03*
G04 #@! TD*
D10*
G04 #@! TO.P,J16,2,Pin_2*
G04 #@! TO.N,/3-6 PhE*
X140289107Y-78711658D03*
D11*
G04 #@! TO.P,J16,1,Pin_1*
X140289107Y-76171658D03*
G04 #@! TD*
G04 #@! TO.P,J8,1,Pin_1*
G04 #@! TO.N,/2-8 PhD*
X72976633Y-76171658D03*
D10*
G04 #@! TO.P,J8,2,Pin_2*
X72976633Y-78711658D03*
G04 #@! TD*
D11*
G04 #@! TO.P,J9,1,Pin_1*
G04 #@! TO.N,/3 PhA*
X126709475Y-76171658D03*
D10*
G04 #@! TO.P,J9,2,Pin_2*
X126709475Y-78711658D03*
G04 #@! TD*
D11*
G04 #@! TO.P,J11,1,Pin_1*
G04 #@! TO.N,/3 PhC*
X112037177Y-76171658D03*
D10*
G04 #@! TO.P,J11,2,Pin_2*
X112037177Y-78711658D03*
G04 #@! TD*
D11*
G04 #@! TO.P,J1,1,Pin_1*
G04 #@! TO.N,/2 PhA*
X51386052Y-76123129D03*
D10*
G04 #@! TO.P,J1,2,Pin_2*
X51386052Y-78663129D03*
G04 #@! TD*
G04 #@! TO.P,J15,2,Pin_2*
G04 #@! TO.N,/3-6 PhD*
X146162749Y-78711658D03*
D11*
G04 #@! TO.P,J15,1,Pin_1*
X146162749Y-76171658D03*
G04 #@! TD*
G04 #@! TO.P,J2,1,Pin_1*
G04 #@! TO.N,/2 PhB*
X44756885Y-76090187D03*
D10*
G04 #@! TO.P,J2,2,Pin_2*
X44756885Y-78630187D03*
G04 #@! TD*
D11*
G04 #@! TO.P,J4,1,Pin_1*
G04 #@! TO.N,/2 PhD*
X58361052Y-76263129D03*
D10*
G04 #@! TO.P,J4,2,Pin_2*
X58361052Y-78803129D03*
G04 #@! TD*
G04 #@! TO.P,J12,2,Pin_2*
G04 #@! TO.N,/3-6 PhA*
X163783675Y-78711658D03*
D11*
G04 #@! TO.P,J12,1,Pin_1*
X163783675Y-76171658D03*
G04 #@! TD*
G04 #@! TO.P,J10,1,Pin_1*
G04 #@! TO.N,/3 PhB*
X119373326Y-76171658D03*
D10*
G04 #@! TO.P,J10,2,Pin_2*
X119373326Y-78711658D03*
G04 #@! TD*
D11*
G04 #@! TO.P,J7,1,Pin_1*
G04 #@! TO.N,/2-8 PhC*
X80174503Y-76171658D03*
D10*
G04 #@! TO.P,J7,2,Pin_2*
X80174503Y-78711658D03*
G04 #@! TD*
D12*
G04 #@! TO.N,/2-8 PhB*
X82296000Y-72136000D03*
X69850000Y-72136000D03*
G04 #@! TO.N,/2-8 PhC*
X88392000Y-70866000D03*
X93472000Y-55880000D03*
X94996000Y-44704000D03*
G04 #@! TO.N,/2-8 PhD*
X95504000Y-81788000D03*
G04 #@! TO.N,/2-8 PhC*
X86614000Y-39370000D03*
X86614000Y-35306000D03*
G04 #@! TO.N,/2-8 PhD*
X93980000Y-46228000D03*
X98298000Y-46228000D03*
G04 #@! TO.N,/2-8 PhB*
X82296000Y-37592000D03*
X80264000Y-39624000D03*
D13*
G04 #@! TO.N,/2 PhA*
X48425000Y-56162431D03*
G04 #@! TO.N,/2 PhB*
X42009736Y-50250062D03*
G04 #@! TO.N,/2 PhC*
X47922104Y-43834799D03*
G04 #@! TO.N,/2 PhD*
X54337368Y-49747169D03*
G04 #@! TO.N,/2-8 PhA*
X78271028Y-44769754D03*
X89275850Y-55230246D03*
G04 #@! TO.N,/2-8 PhB*
X83580989Y-42410865D03*
X83965889Y-57589135D03*
G04 #@! TO.N,/2-8 PhC*
X78543193Y-55502411D03*
X89003685Y-44497589D03*
G04 #@! TO.N,/2-8 PhD*
X91362574Y-49807550D03*
X76184304Y-50192450D03*
G04 #@! TO.N,/3 PhA*
X124609853Y-52362618D03*
G04 #@! TO.N,/3 PhB*
X114559700Y-53002321D03*
G04 #@! TO.N,/3 PhC*
X119030779Y-43978782D03*
G04 #@! TO.N,/3-6 PhA*
X160959120Y-53402158D03*
G04 #@! TO.N,/3-6 PhB*
X154999999Y-56842658D03*
G04 #@! TO.N,/3-6 PhC*
X149040878Y-53402158D03*
G04 #@! TO.N,/3-6 PhD*
X149040878Y-46521158D03*
G04 #@! TO.N,/3-6 PhE*
X154999999Y-43080658D03*
G04 #@! TO.N,/3-6 PhF*
X160959120Y-46521158D03*
G04 #@! TD*
D14*
G04 #@! TO.N,/3 PhB*
X119400110Y-60086041D02*
X119400110Y-59964110D01*
G04 #@! TO.N,/2 PhB*
X40894000Y-57292251D02*
X40886958Y-57285209D01*
X40894000Y-57404000D02*
X40894000Y-57292251D01*
G04 #@! TO.N,/2-8 PhB*
X85569658Y-78711658D02*
X87372373Y-78711658D01*
X84836000Y-77978000D02*
X85569658Y-78711658D01*
X84836000Y-74676000D02*
X84836000Y-77978000D01*
X82296000Y-72136000D02*
X84836000Y-74676000D01*
X77470000Y-40894000D02*
X69850000Y-48514000D01*
X77884394Y-40479606D02*
X77470000Y-40894000D01*
X69850000Y-48514000D02*
X69850000Y-51308000D01*
X69850000Y-51308000D02*
X69850000Y-72136000D01*
X79829963Y-40479606D02*
X77884394Y-40479606D01*
G04 #@! TO.N,/2-8 PhC*
X88392000Y-60960000D02*
X88392000Y-70866000D01*
X93472000Y-55880000D02*
X88392000Y-60960000D01*
X91948000Y-42672000D02*
X93980000Y-44704000D01*
X93980000Y-44704000D02*
X94996000Y-44704000D01*
X89755607Y-40479607D02*
X91948000Y-42672000D01*
X87716915Y-40479607D02*
X89755607Y-40479607D01*
G04 #@! TO.N,/2-8 PhD*
X99314000Y-77978000D02*
X95504000Y-81788000D01*
X99314000Y-46228000D02*
X99314000Y-77978000D01*
X93726000Y-45466000D02*
X98552000Y-45466000D01*
X98552000Y-45466000D02*
X99314000Y-46228000D01*
X93293833Y-45898167D02*
X93726000Y-45466000D01*
X93293833Y-46056524D02*
X93293833Y-45898167D01*
G04 #@! TO.N,/2-8 PhA*
X71120000Y-49189570D02*
X74253046Y-46056524D01*
G04 #@! TO.N,/2-8 PhD*
X71569511Y-56627010D02*
X74253045Y-53943476D01*
X72976633Y-76171658D02*
X72976633Y-62562633D01*
X72976633Y-62562633D02*
X71569511Y-61155511D01*
G04 #@! TO.N,/2-8 PhA*
X92710000Y-82550000D02*
X71120000Y-82550000D01*
G04 #@! TO.N,/2-8 PhD*
X71569511Y-61155511D02*
X71569511Y-56627010D01*
G04 #@! TO.N,/2-8 PhA*
X94570245Y-80689755D02*
X92710000Y-82550000D01*
X71120000Y-82550000D02*
X71120000Y-49189570D01*
X94570245Y-78711658D02*
X94570245Y-80689755D01*
G04 #@! TO.N,/2-8 PhC*
X86614000Y-35306000D02*
X86614000Y-39370000D01*
G04 #@! TO.N,/2-8 PhD*
X98298000Y-46228000D02*
X93980000Y-46228000D01*
G04 #@! TO.N,/2-8 PhB*
X80264000Y-39624000D02*
X82296000Y-37592000D01*
G04 #@! TO.N,/3-6 PhE*
X138938000Y-43180000D02*
X141048843Y-41069157D01*
X149815881Y-41069157D02*
X149847599Y-41037439D01*
X138938000Y-59690000D02*
X138938000Y-43180000D01*
X140289107Y-61041107D02*
X138938000Y-59690000D01*
X141048843Y-41069157D02*
X149815881Y-41069157D01*
X140289107Y-76171658D02*
X140289107Y-61041107D01*
G04 #@! TO.N,/3-6 PhF*
X168312369Y-41037439D02*
X160152399Y-41037439D01*
X170688000Y-59944000D02*
X170688000Y-43413070D01*
X170688000Y-43413070D02*
X168312369Y-41037439D01*
X169657320Y-60974680D02*
X170688000Y-59944000D01*
X169657320Y-76171658D02*
X169657320Y-60974680D01*
G04 #@! TO.N,/3-6 PhD*
X140462000Y-54194857D02*
X144695199Y-49961658D01*
X146162749Y-63866749D02*
X140462000Y-58166000D01*
X146162749Y-76171658D02*
X146162749Y-63866749D01*
X140462000Y-58166000D02*
X140462000Y-54194857D01*
G04 #@! TO.N,/3-6 PhA*
X169164000Y-58420000D02*
X169164000Y-53820859D01*
X163783675Y-63800325D02*
X169164000Y-58420000D01*
X169164000Y-53820859D02*
X165304799Y-49961658D01*
X163783675Y-76171658D02*
X163783675Y-63800325D01*
G04 #@! TO.N,/3-6 PhC*
X152036391Y-61074669D02*
X149847599Y-58885877D01*
X152036391Y-76171658D02*
X152036391Y-61074669D01*
G04 #@! TO.N,/3-6 PhB*
X157910033Y-61128243D02*
X160152399Y-58885877D01*
X157910033Y-76171658D02*
X157910033Y-61128243D01*
G04 #@! TO.N,/2-8 PhB*
X87372373Y-59864936D02*
X87716915Y-59520394D01*
X87372373Y-76171658D02*
X87372373Y-59864936D01*
G04 #@! TO.N,/2-8 PhC*
X80174503Y-59864933D02*
X79829963Y-59520393D01*
X80174503Y-76171658D02*
X80174503Y-59864933D01*
G04 #@! TO.N,/2-8 PhA*
X96266000Y-56915644D02*
X93293832Y-53943476D01*
X96266000Y-60960000D02*
X96266000Y-56915644D01*
X94570245Y-62655755D02*
X96266000Y-60960000D01*
X94570245Y-76171658D02*
X94570245Y-62655755D01*
G04 #@! TO.N,/2 PhC*
X40640000Y-42672000D02*
X40846937Y-42672000D01*
X37338000Y-45974000D02*
X40640000Y-42672000D01*
X40846937Y-42672000D02*
X40886959Y-42712022D01*
X37338000Y-54102000D02*
X37338000Y-45974000D01*
X37986052Y-54750052D02*
X37338000Y-54102000D01*
X37986052Y-76188129D02*
X37986052Y-54750052D01*
G04 #@! TO.N,/2 PhD*
X58928000Y-46179875D02*
X55460146Y-42712021D01*
X58361052Y-54922948D02*
X58928000Y-54356000D01*
X58361052Y-76263129D02*
X58361052Y-54922948D01*
X58928000Y-54356000D02*
X58928000Y-46179875D01*
G04 #@! TO.N,/2 PhB*
X44756885Y-61266885D02*
X40894000Y-57404000D01*
X44756885Y-76090187D02*
X44756885Y-61266885D01*
G04 #@! TO.N,/2 PhA*
X51386052Y-61359303D02*
X55460146Y-57285209D01*
X51386052Y-76123129D02*
X51386052Y-61359303D01*
G04 #@! TO.N,/3 PhC*
X104902000Y-58166000D02*
X104902000Y-48260000D01*
X108533160Y-44628840D02*
X110475893Y-44628840D01*
X112037177Y-65301177D02*
X104902000Y-58166000D01*
X112037177Y-76171658D02*
X112037177Y-65301177D01*
X104902000Y-48260000D02*
X108533160Y-44628840D01*
G04 #@! TO.N,/3 PhA*
X133858000Y-48006000D02*
X130480840Y-44628840D01*
X133858000Y-57912000D02*
X133858000Y-48006000D01*
X126709475Y-65060525D02*
X133858000Y-57912000D01*
X130480840Y-44628840D02*
X128324329Y-44628840D01*
X126709475Y-76171658D02*
X126709475Y-65060525D01*
G04 #@! TO.N,/3 PhB*
X119373326Y-60112825D02*
X119400110Y-60086041D01*
X119373326Y-76171658D02*
X119373326Y-60112825D01*
D15*
G04 #@! TO.N,/2 PhA*
X47363693Y-56340314D02*
X48425000Y-56162431D01*
X51038383Y-56886601D02*
X48425000Y-54273217D01*
X48424999Y-53770323D02*
X45308721Y-56886601D01*
X47936283Y-51744568D02*
X42439344Y-57241507D01*
X48425000Y-55279006D02*
X47363693Y-56340314D01*
X48425000Y-54273217D02*
X45951605Y-56746612D01*
X48070061Y-52113684D02*
X42979591Y-57204154D01*
X50395499Y-56746611D02*
X48425000Y-54776111D01*
X52813140Y-57152674D02*
X48472085Y-52811619D01*
X48368870Y-52820664D02*
X44104769Y-57084765D01*
X53907762Y-57241507D02*
X48712688Y-52046434D01*
X53367514Y-57204153D02*
X48598410Y-52435050D01*
X48425000Y-54776111D02*
X46632092Y-56569018D01*
X47725810Y-50949251D02*
X41394348Y-57280714D01*
X55460146Y-57285209D02*
X48916581Y-50741642D01*
X49715013Y-56569019D02*
X48425000Y-55279006D01*
X54952757Y-57280714D02*
X48884267Y-51212224D01*
X52242335Y-57084765D02*
X48424999Y-53267428D01*
X48215174Y-52471464D02*
X43533966Y-57152674D01*
X48424999Y-53267428D02*
X44695005Y-56997423D01*
X54435691Y-57266543D02*
X48810579Y-51641431D01*
X47818497Y-51359459D02*
X41911413Y-57266543D01*
X51652099Y-56997422D02*
X48424999Y-53770323D01*
X47725835Y-50949198D02*
G75*
G03*
X48916580Y-50741641I447765J950598D01*
G01*
X52813140Y-57152674D02*
G75*
G02*
X43533966Y-57152674I-4639587J7154062D01*
G01*
X52242335Y-57084765D02*
G75*
G02*
X44104769Y-57084765I-4068783J7086153D01*
G01*
X48215174Y-52471462D02*
G75*
G03*
X48598410Y-52435049I-41574J2472462D01*
G01*
X51652098Y-56997421D02*
G75*
G02*
X44695005Y-56997422I-3478548J6998791D01*
G01*
X48368870Y-52820665D02*
G75*
G03*
X48472085Y-52811619I-195370J2822565D01*
G01*
X53907761Y-57241506D02*
G75*
G02*
X42439345Y-57241506I-5734208J7242894D01*
G01*
X47818506Y-51359423D02*
G75*
G03*
X48884267Y-51212224I355094J1360823D01*
G01*
X54952757Y-57280714D02*
G75*
G02*
X41394348Y-57280714I-6779204J7282099D01*
G01*
X49715018Y-56569039D02*
G75*
G02*
X46632092Y-56569018I-1541418J6570439D01*
G01*
X48070062Y-52113672D02*
G75*
G03*
X48712688Y-52046433I103538J2114972D01*
G01*
X54435691Y-57266543D02*
G75*
G02*
X41911413Y-57266543I-6262139J7267928D01*
G01*
X51038383Y-56886600D02*
G75*
G02*
X45308721Y-56886600I-2864831J6887992D01*
G01*
X47936280Y-51744592D02*
G75*
G03*
X48810579Y-51641430I237220J1745992D01*
G01*
X50395509Y-56746640D02*
G75*
G02*
X45951605Y-56746612I-2221909J6748040D01*
G01*
X53367513Y-57204151D02*
G75*
G02*
X42979591Y-57204154I-5193963J7205531D01*
G01*
G04 #@! TO.N,/2 PhB*
X47222917Y-49550875D02*
X40891454Y-43219410D01*
X41019494Y-54638202D02*
X45360549Y-50297147D01*
X40891454Y-56777819D02*
X46959944Y-50709330D01*
X41285567Y-52863447D02*
X43898951Y-50250062D01*
X40886958Y-57285209D02*
X47430525Y-50741643D01*
X44401845Y-50250063D02*
X41285567Y-47133784D01*
X41425556Y-52220562D02*
X43396056Y-50250062D01*
X41831855Y-49188755D02*
X42009736Y-50250062D01*
X41174744Y-53477162D02*
X44401845Y-50250063D01*
X43396056Y-50250062D02*
X41603149Y-48457154D01*
X44904739Y-50250062D02*
X41174745Y-46520068D01*
X43898951Y-50250062D02*
X41425556Y-47776669D01*
X45351504Y-50193932D02*
X41087403Y-45929832D01*
X45700702Y-50040237D02*
X41019494Y-45359028D01*
X46427601Y-49761346D02*
X40930660Y-44264407D01*
X40930660Y-55732825D02*
X46125734Y-50537751D01*
X40968014Y-55192576D02*
X45737118Y-50423473D01*
X41603149Y-51540076D02*
X42893162Y-50250062D01*
X46812709Y-49643559D02*
X40905625Y-43736476D01*
X41087403Y-54067398D02*
X44904739Y-50250062D01*
X40905624Y-56260754D02*
X46530738Y-50635641D01*
X46058483Y-49895123D02*
X40968013Y-44804653D01*
X42893162Y-50250062D02*
X41831855Y-49188755D01*
X41087399Y-54067400D02*
G75*
G02*
X41087403Y-45929832I7086161J4068780D01*
G01*
X45351505Y-50193932D02*
G75*
G03*
X45360549Y-50297147I2822595J195332D01*
G01*
X41285564Y-52863448D02*
G75*
G02*
X41285568Y-47133784I6887986J2864828D01*
G01*
X41603156Y-51540074D02*
G75*
G02*
X41603149Y-48457154I6570444J1541474D01*
G01*
X41425554Y-52220563D02*
G75*
G02*
X41425556Y-47776669I6748036J2221943D01*
G01*
X46058478Y-49895123D02*
G75*
G03*
X46125735Y-50537751I2115022J-103477D01*
G01*
X40930657Y-55732828D02*
G75*
G02*
X40930660Y-44264407I7242893J5734208D01*
G01*
X45700701Y-50040237D02*
G75*
G03*
X45737119Y-50423473I2472799J41637D01*
G01*
X41174741Y-53477163D02*
G75*
G02*
X41174745Y-46520068I6998819J3478543D01*
G01*
X46427592Y-49761345D02*
G75*
G03*
X46530739Y-50635641I1745908J-237255D01*
G01*
X46812703Y-49643557D02*
G75*
G03*
X46959945Y-50709330I1360897J-355043D01*
G01*
X40891454Y-56777819D02*
G75*
G02*
X40891454Y-43219410I7282099J6779204D01*
G01*
X40968018Y-55192573D02*
G75*
G02*
X40968014Y-44804653I7205532J5193963D01*
G01*
X41019490Y-54638205D02*
G75*
G02*
X41019494Y-45359028I7154070J4639585D01*
G01*
X40905624Y-56260754D02*
G75*
G02*
X40905625Y-43736476I7267923J6262138D01*
G01*
X47222910Y-49550871D02*
G75*
G03*
X47430525Y-50741643I950690J-447729D01*
G01*
G04 #@! TO.N,/2 PhC*
X42439343Y-42755722D02*
X47634416Y-47950796D01*
X47922105Y-45221119D02*
X49715013Y-43428212D01*
X47922106Y-46226908D02*
X51038384Y-43110629D01*
X48410822Y-48252663D02*
X53907762Y-42755723D01*
X45308721Y-43110629D02*
X47922105Y-45724013D01*
X44695005Y-42999808D02*
X47922106Y-46226908D01*
X43533965Y-42844556D02*
X47875021Y-47185612D01*
X47922105Y-45724013D02*
X50395500Y-43250619D01*
X47978235Y-47176567D02*
X52242335Y-42912466D01*
X46632092Y-43428211D02*
X47922105Y-44718224D01*
X41911414Y-42730688D02*
X47536527Y-48355801D01*
X40886959Y-42712022D02*
X47430525Y-49255587D01*
X48528608Y-48637771D02*
X54435692Y-42730688D01*
X47922105Y-44718224D02*
X48983412Y-43656917D01*
X44104769Y-42912466D02*
X47922106Y-46729802D01*
X48983412Y-43656917D02*
X47922104Y-43834799D01*
X42979591Y-42793076D02*
X47748694Y-47562181D01*
X48621294Y-49047980D02*
X54952757Y-42716516D01*
X41394348Y-42716516D02*
X47462838Y-48785007D01*
X47922106Y-46729802D02*
X51652101Y-42999808D01*
X48277045Y-47883545D02*
X53367514Y-42793076D01*
X48131932Y-47525765D02*
X52813140Y-42844557D01*
X45951605Y-43250619D02*
X47922105Y-45221119D01*
X45951605Y-43250620D02*
G75*
G02*
X50395500Y-43250620I2221948J-6748017D01*
G01*
X44695005Y-42999808D02*
G75*
G02*
X51652101Y-42999808I3478548J-6998802D01*
G01*
X42439342Y-42755721D02*
G75*
G02*
X53907762Y-42755723I5734208J-7242899D01*
G01*
X48621318Y-49047929D02*
G75*
G03*
X47430526Y-49255588I-447718J-950671D01*
G01*
X48277046Y-47883531D02*
G75*
G03*
X47634416Y-47950797I-103446J-2115069D01*
G01*
X47978235Y-47176567D02*
G75*
G03*
X47875021Y-47185612I195365J-2822833D01*
G01*
X44104769Y-42912467D02*
G75*
G02*
X52242335Y-42912467I4068783J-7086145D01*
G01*
X41911414Y-42730688D02*
G75*
G02*
X54435692Y-42730688I6262139J-7267924D01*
G01*
X43533964Y-42844555D02*
G75*
G02*
X52813140Y-42844557I4639586J-7154065D01*
G01*
X48131932Y-47525759D02*
G75*
G03*
X47748694Y-47562182I41668J-2472841D01*
G01*
X48528617Y-48637736D02*
G75*
G03*
X47462838Y-48785007I-355017J-1360864D01*
G01*
X41394349Y-42716517D02*
G75*
G02*
X54952757Y-42716516I6779204J-7282098D01*
G01*
X45308721Y-43110630D02*
G75*
G02*
X51038384Y-43110630I2864832J-6887981D01*
G01*
X46632097Y-43428233D02*
G75*
G02*
X49715013Y-43428212I1541503J-6570367D01*
G01*
X42979592Y-42793077D02*
G75*
G02*
X53367514Y-42793077I5193961J-7205543D01*
G01*
X48410825Y-48252641D02*
G75*
G03*
X47536527Y-48355802I-237225J-1745959D01*
G01*
G04 #@! TO.N,/2 PhD*
X54921549Y-47776668D02*
X52951049Y-49747168D01*
X49534397Y-50353670D02*
X55441481Y-56260754D01*
X55441480Y-43736476D02*
X49816367Y-49361589D01*
X55455651Y-43219410D02*
X49387161Y-49287901D01*
X55061539Y-47133784D02*
X52448154Y-49747168D01*
X51945260Y-49747169D02*
X55061538Y-52863446D01*
X49919505Y-50235884D02*
X55416444Y-55732824D01*
X54515250Y-50808475D02*
X54337368Y-49747169D01*
X55460146Y-42712021D02*
X48916580Y-49255587D01*
X55172360Y-46520068D02*
X51945260Y-49747169D01*
X52448154Y-49747168D02*
X54921548Y-52220562D01*
X50646402Y-49956994D02*
X55327611Y-54638202D01*
X52951049Y-49747168D02*
X54743956Y-51540075D01*
X50995602Y-49803298D02*
X55259702Y-54067397D01*
X49124187Y-50446356D02*
X55455652Y-56777819D01*
X55259703Y-45929832D02*
X51442366Y-49747168D01*
X50288622Y-50102107D02*
X55379092Y-55192576D01*
X55416444Y-44264407D02*
X50221371Y-49459479D01*
X53453944Y-49747168D02*
X54515250Y-50808475D01*
X55379091Y-44804653D02*
X50609987Y-49573759D01*
X51442366Y-49747168D02*
X55172360Y-53477163D01*
X55327611Y-45359028D02*
X50986557Y-49700083D01*
X54743956Y-48457155D02*
X53453944Y-49747168D01*
X50288615Y-50102107D02*
G75*
G03*
X50221370Y-49459479I-2115115J103507D01*
G01*
X49534380Y-50353665D02*
G75*
G03*
X49387161Y-49287901I-1360880J355065D01*
G01*
X55379086Y-44804656D02*
G75*
G02*
X55379092Y-55192576I-7205526J-5193964D01*
G01*
X54743962Y-48457154D02*
G75*
G02*
X54743956Y-51540075I-6570462J-1541446D01*
G01*
X55327606Y-45359031D02*
G75*
G02*
X55327611Y-54638202I-7154056J-4639589D01*
G01*
X54921550Y-47776668D02*
G75*
G02*
X54921547Y-52220562I-6748010J-2221942D01*
G01*
X55172356Y-46520070D02*
G75*
G02*
X55172360Y-53477163I-6998796J-3478550D01*
G01*
X55416440Y-44264411D02*
G75*
G02*
X55416444Y-55732824I-7242890J-5734209D01*
G01*
X50995599Y-49803298D02*
G75*
G03*
X50986556Y-49700083I-2822599J-195302D01*
G01*
X55259706Y-45929830D02*
G75*
G02*
X55259702Y-54067397I-7086156J-4068780D01*
G01*
X49124181Y-50446353D02*
G75*
G03*
X48916579Y-49255588I-950581J447753D01*
G01*
X49919492Y-50235882D02*
G75*
G03*
X49816366Y-49361589I-1745992J237282D01*
G01*
X55441476Y-43736480D02*
G75*
G02*
X55441481Y-56260754I-7267926J-6262140D01*
G01*
X55061541Y-47133783D02*
G75*
G02*
X55061538Y-52863446I-6887991J-2864827D01*
G01*
X50646403Y-49956994D02*
G75*
G03*
X50609987Y-49573759I-2472603J-41606D01*
G01*
X55455651Y-43219410D02*
G75*
G02*
X55455652Y-56777819I-7282096J-6779205D01*
G01*
G04 #@! TO.N,/2-8 PhA*
X77302622Y-45010307D02*
X79366447Y-45865172D01*
X79366447Y-45865172D02*
X78638566Y-44107914D01*
X75206662Y-45681727D02*
X81994699Y-48493425D01*
X91842892Y-54497173D02*
X86209242Y-52163638D01*
X80680573Y-47179298D02*
X78939444Y-42975841D01*
X90244256Y-54989693D02*
X88180431Y-54134828D01*
X81994699Y-48493425D02*
X79276266Y-41930547D01*
X93293832Y-53943476D02*
X84744252Y-50402124D01*
X86209242Y-52163638D02*
X88442846Y-57556036D01*
X83066509Y-49222549D02*
X79639946Y-40950093D01*
X87523369Y-53477765D02*
X88763131Y-56470817D01*
X86866305Y-52820702D02*
X88607434Y-57024159D01*
X92823346Y-54133493D02*
X84895116Y-50849513D01*
X76749279Y-45166005D02*
X80023509Y-46522235D01*
X85552179Y-51506575D02*
X88270612Y-58069453D01*
X84480369Y-50777451D02*
X87906932Y-59049907D01*
X84895116Y-50849513D02*
X88091713Y-58566778D01*
X76217404Y-45330593D02*
X80680573Y-47179298D01*
X74253046Y-46056524D02*
X82802626Y-49597876D01*
X90797599Y-54833995D02*
X87523369Y-53477765D01*
X91329474Y-54669407D02*
X86866305Y-52820702D01*
X82651762Y-49150487D02*
X79455165Y-41433222D01*
X80023509Y-46522235D02*
X78783747Y-43529183D01*
X88908312Y-55892086D02*
X89275850Y-55230246D01*
X88180431Y-54134828D02*
X88908312Y-55892086D01*
X75703986Y-45502827D02*
X81337636Y-47836362D01*
X74723532Y-45866507D02*
X82651762Y-49150487D01*
X81337636Y-47836362D02*
X79104032Y-42443964D01*
X92340216Y-54318273D02*
X85552179Y-51506575D01*
X78638566Y-44107914D02*
X78271028Y-44769754D01*
X76749293Y-45166015D02*
G75*
G02*
X78939444Y-42975841I7024207J-4833985D01*
G01*
X83066499Y-49222538D02*
G75*
G03*
X82802627Y-49597876I707001J-777462D01*
G01*
X77302618Y-45010304D02*
G75*
G02*
X78783747Y-43529184I6470882J-4989796D01*
G01*
X91329464Y-54669401D02*
G75*
G02*
X88442846Y-57556036I-7556064J4669401D01*
G01*
X74723515Y-45866499D02*
G75*
G02*
X79639946Y-40950094I9049885J-4133501D01*
G01*
X75703973Y-45502820D02*
G75*
G02*
X79276266Y-41930548I8069427J-4497180D01*
G01*
X75206646Y-45681719D02*
G75*
G02*
X79455165Y-41433222I8566754J-4318281D01*
G01*
X90244264Y-54989699D02*
G75*
G02*
X88763131Y-56470817I-6470864J4989799D01*
G01*
X91842878Y-54497165D02*
G75*
G02*
X88270612Y-58069452I-8069478J4497165D01*
G01*
X92340201Y-54318266D02*
G75*
G02*
X88091713Y-58566778I-8566801J4318266D01*
G01*
X76217393Y-45330586D02*
G75*
G02*
X79104032Y-42443964I7556007J-4669414D01*
G01*
X90797590Y-54833989D02*
G75*
G02*
X88607434Y-57024159I-7024190J4833989D01*
G01*
X84480376Y-50777458D02*
G75*
G03*
X84744252Y-50402124I-706976J777458D01*
G01*
X92823328Y-54133485D02*
G75*
G02*
X87906932Y-59049907I-9049928J4133485D01*
G01*
G04 #@! TO.N,/2-8 PhB*
X83580990Y-45818476D02*
X85322119Y-41615019D01*
X83580990Y-47676931D02*
X86299423Y-41114054D01*
X82224759Y-41615019D02*
X83580990Y-44889248D01*
X83823306Y-48950384D02*
X87249869Y-40677929D01*
X83965888Y-55110752D02*
X82726125Y-58103804D01*
X83580990Y-43960021D02*
X84308870Y-42202762D01*
X85814594Y-58644693D02*
X83965888Y-54181524D01*
X80769292Y-40888893D02*
X83580990Y-47676931D01*
X83965888Y-54181524D02*
X82224759Y-58384981D01*
X84308870Y-42202762D02*
X83580989Y-42410865D01*
X87716915Y-59520394D02*
X84175563Y-50970813D01*
X83965888Y-56039979D02*
X83238008Y-57797238D01*
X83580989Y-46747703D02*
X85814593Y-41355307D01*
X83965888Y-52323069D02*
X81247455Y-58885946D01*
X83965889Y-53252297D02*
X81732285Y-58644693D01*
X83580990Y-44889248D02*
X84820753Y-41896196D01*
X81247456Y-41114054D02*
X83580989Y-46747703D01*
X80297009Y-40677928D02*
X83580989Y-48606159D01*
X83238008Y-57797238D02*
X83965889Y-57589135D01*
X84820752Y-58103804D02*
X83965888Y-56039979D01*
X81732284Y-41355307D02*
X83580990Y-45818476D01*
X83723572Y-51049616D02*
X80297009Y-59322071D01*
X86777586Y-59111107D02*
X83965888Y-52323069D01*
X82726126Y-41896196D02*
X83580990Y-43960021D01*
X83965889Y-51393841D02*
X80769292Y-59111107D01*
X85322119Y-58384981D02*
X83965888Y-55110752D01*
X86299422Y-58885946D02*
X83965889Y-53252297D01*
X87249869Y-59322072D02*
X83965889Y-51393841D01*
X79829963Y-40479606D02*
X83371315Y-49029187D01*
X83580989Y-48606159D02*
X86777586Y-40888893D01*
X83723571Y-51049633D02*
G75*
G03*
X84175563Y-50970813I49829J1049633D01*
G01*
X80769292Y-40888893D02*
G75*
G02*
X86777586Y-40888893I3004147J-9111096D01*
G01*
X86299422Y-58885946D02*
G75*
G02*
X81247455Y-58885946I-2525983J8885925D01*
G01*
X87249859Y-59322046D02*
G75*
G02*
X80297009Y-59322071I-3476459J9322046D01*
G01*
X86777586Y-59111107D02*
G75*
G02*
X80769292Y-59111107I-3004147J9111096D01*
G01*
X81732284Y-41355307D02*
G75*
G02*
X85814593Y-41355307I2041154J-8644691D01*
G01*
X80297000Y-40677904D02*
G75*
G02*
X87249869Y-40677929I3476400J-9322096D01*
G01*
X81247456Y-41114055D02*
G75*
G02*
X86299423Y-41114055I2525984J-8885924D01*
G01*
X85814594Y-58644692D02*
G75*
G02*
X81732285Y-58644692I-2041155J8644690D01*
G01*
X85322119Y-58384980D02*
G75*
G02*
X82224759Y-58384980I-1548680J8384973D01*
G01*
X82224759Y-41615020D02*
G75*
G02*
X85322119Y-41615020I1548680J-8384973D01*
G01*
X84820752Y-58103803D02*
G75*
G02*
X82726125Y-58103803I-1047314J8103769D01*
G01*
X82726126Y-41896196D02*
G75*
G02*
X84820753Y-41896196I1047313J-8103770D01*
G01*
X83823305Y-48950401D02*
G75*
G03*
X83371315Y-49029187I-49905J-1049599D01*
G01*
G04 #@! TO.N,/2-8 PhC*
X78939444Y-57024160D02*
X80295674Y-53749930D01*
X78783746Y-56470817D02*
X79638611Y-54406992D01*
X79455166Y-58566777D02*
X82266864Y-51778740D01*
X82923926Y-51121677D02*
X75206661Y-54318274D01*
X85937077Y-47564197D02*
X91329475Y-45330593D01*
X84550890Y-49293070D02*
X92823346Y-45866507D01*
X89665525Y-44865127D02*
X89003685Y-44497589D01*
X79638611Y-54406992D02*
X77881353Y-55134873D01*
X88091712Y-41433223D02*
X85280014Y-48221260D01*
X79276266Y-58069453D02*
X81609801Y-52435803D01*
X88270612Y-41930547D02*
X85937077Y-47564197D01*
X77881353Y-55134873D02*
X78543193Y-55502411D01*
X82995988Y-50706930D02*
X74723532Y-54133493D01*
X80295674Y-53749930D02*
X77302622Y-54989692D01*
X88763132Y-43529183D02*
X87908267Y-45593008D01*
X86594141Y-46907134D02*
X90797598Y-45166005D01*
X79639946Y-59049907D02*
X82923926Y-51121677D01*
X88607434Y-42975840D02*
X87251204Y-46250070D01*
X87908267Y-45593008D02*
X89665525Y-44865127D01*
X82266864Y-51778740D02*
X75703986Y-54497173D01*
X87716915Y-40479607D02*
X84175563Y-49029187D01*
X81609801Y-52435803D02*
X76217403Y-54669407D01*
X88442846Y-42443965D02*
X86594141Y-46907134D01*
X87251204Y-46250070D02*
X90244256Y-45010308D01*
X79829963Y-59520393D02*
X83371315Y-50970813D01*
X85280014Y-48221260D02*
X91842892Y-45502827D01*
X79104032Y-57556035D02*
X80952737Y-53092866D01*
X87906932Y-40950093D02*
X84622952Y-48878323D01*
X80952737Y-53092866D02*
X76749280Y-54833995D01*
X84622952Y-48878323D02*
X92340217Y-45681726D01*
X79455174Y-58566762D02*
G75*
G02*
X75206662Y-54318274I4318226J8566762D01*
G01*
X79639954Y-59049889D02*
G75*
G02*
X74723532Y-54133493I4133446J9049889D01*
G01*
X78783751Y-56470810D02*
G75*
G02*
X77302623Y-54989692I4989749J6470910D01*
G01*
X82996004Y-50706915D02*
G75*
G03*
X83371315Y-50970812I777496J706915D01*
G01*
X88442853Y-42443954D02*
G75*
G02*
X91329474Y-45330593I-4669453J-7556046D01*
G01*
X79276274Y-58069439D02*
G75*
G02*
X75703986Y-54497173I4497126J8069439D01*
G01*
X87906940Y-40950076D02*
G75*
G02*
X92823346Y-45866507I-4133540J-9049924D01*
G01*
X78939436Y-57024172D02*
G75*
G02*
X76749280Y-54833995I4834064J7024172D01*
G01*
X88763125Y-43529192D02*
G75*
G02*
X90244256Y-45010308I-4989725J-6470908D01*
G01*
X88270619Y-41930534D02*
G75*
G02*
X91842891Y-45502827I-4497219J-8069466D01*
G01*
X84550880Y-49293079D02*
G75*
G03*
X84175563Y-49029187I-777480J-706921D01*
G01*
X79104038Y-57556025D02*
G75*
G02*
X76217403Y-54669407I4669362J7556025D01*
G01*
X88607439Y-42975832D02*
G75*
G02*
X90797598Y-45166005I-4834039J-7024168D01*
G01*
X88091720Y-41433207D02*
G75*
G02*
X92340216Y-45681726I-4318320J-8566793D01*
G01*
G04 #@! TO.N,/2-8 PhD*
X75976201Y-49464569D02*
X76184304Y-50192450D01*
X86096508Y-49807551D02*
X92659385Y-52525984D01*
X74887493Y-52525983D02*
X80521142Y-50192450D01*
X85167280Y-49807550D02*
X92884546Y-53004147D01*
X82379598Y-50192450D02*
X74662332Y-46995853D01*
X88884191Y-49807551D02*
X91877243Y-51047314D01*
X78662687Y-50192449D02*
X75669635Y-48952686D01*
X82723823Y-49950133D02*
X74451368Y-46523570D01*
X74451367Y-53476430D02*
X82379598Y-50192450D01*
X93095511Y-46523570D02*
X85167280Y-49807550D01*
X75388458Y-51548680D02*
X78662687Y-50192449D01*
X84823055Y-50049867D02*
X93095510Y-53476430D01*
X74662332Y-53004147D02*
X81450370Y-50192449D01*
X92418132Y-47958845D02*
X87954963Y-49807551D01*
X75128746Y-52041155D02*
X79591915Y-50192449D01*
X80521142Y-50192450D02*
X75128746Y-47958846D01*
X75669635Y-51047313D02*
X77733460Y-50192449D01*
X74253045Y-53943476D02*
X82802626Y-50402124D01*
X92659385Y-47474017D02*
X87025736Y-49807550D01*
X92158420Y-48451320D02*
X88884191Y-49807551D01*
X77733460Y-50192449D02*
X75976201Y-49464569D01*
X79591915Y-50192449D02*
X75388458Y-48451320D01*
X87954963Y-49807551D02*
X92158420Y-51548680D01*
X91877243Y-48952687D02*
X89813418Y-49807551D01*
X91570677Y-50535431D02*
X91362574Y-49807550D01*
X93293833Y-46056524D02*
X84744252Y-49597876D01*
X87025736Y-49807550D02*
X92418132Y-52041154D01*
X92884546Y-46995853D02*
X86096508Y-49807551D01*
X81450370Y-50192449D02*
X74887493Y-47474016D01*
X89813418Y-49807551D02*
X91570677Y-50535431D01*
X82723820Y-49950133D02*
G75*
G03*
X82802626Y-50402124I1049580J-49867D01*
G01*
X74887494Y-52525983D02*
G75*
G02*
X74887494Y-47474016I8885906J2525983D01*
G01*
X93095510Y-46523570D02*
G75*
G02*
X93095510Y-53476430I-9322110J-3476430D01*
G01*
X84823060Y-50049867D02*
G75*
G03*
X84744252Y-49597876I-1049560J49867D01*
G01*
X92884546Y-46995853D02*
G75*
G02*
X92884546Y-53004147I-9111146J-3004147D01*
G01*
X75388459Y-51548680D02*
G75*
G02*
X75388459Y-48451320I8384941J1548680D01*
G01*
X92659385Y-47474017D02*
G75*
G02*
X92659384Y-52525984I-8885885J-2525983D01*
G01*
X91877243Y-48952687D02*
G75*
G02*
X91877243Y-51047314I-8103743J-1047313D01*
G01*
X75128747Y-52041155D02*
G75*
G02*
X75128747Y-47958846I8644653J2041155D01*
G01*
X74451368Y-53476430D02*
G75*
G02*
X74451368Y-46523570I9322032J3476430D01*
G01*
X92418131Y-47958845D02*
G75*
G02*
X92418131Y-52041154I-8644731J-2041155D01*
G01*
X75669635Y-51047313D02*
G75*
G02*
X75669635Y-48952686I8103765J1047313D01*
G01*
X74662332Y-53004147D02*
G75*
G02*
X74662332Y-46995853I9111068J3004147D01*
G01*
X92158420Y-48451320D02*
G75*
G02*
X92158420Y-51548680I-8385020J-1548680D01*
G01*
G04 #@! TO.N,/3 PhA*
X125735328Y-50640327D02*
X124000452Y-51641960D01*
X120466912Y-51183589D02*
X120466911Y-58957436D01*
X123667311Y-54052495D02*
X124609853Y-52362618D01*
X121533711Y-51638620D02*
X121533711Y-57668968D01*
X127511215Y-47151350D02*
X122194530Y-50220940D01*
X128041152Y-45613556D02*
X121151823Y-49591112D01*
X126794868Y-48796768D02*
X123127313Y-50914232D01*
X122956112Y-52110954D02*
X122956111Y-55517195D01*
X127060755Y-48232647D02*
X122824531Y-50678431D01*
X122244911Y-51888066D02*
X122244912Y-56677523D01*
X121178110Y-51500380D02*
X121178111Y-58120605D01*
X119755712Y-50770042D02*
X119755711Y-59724083D01*
X123667311Y-52314305D02*
X123667311Y-54052495D01*
X128188666Y-45117777D02*
X120756313Y-49408849D01*
X127297882Y-47685128D02*
X122514133Y-50447028D01*
X126493257Y-49381514D02*
X123423656Y-51153749D01*
X123311711Y-52214754D02*
X123311711Y-54838156D01*
X120822511Y-51350000D02*
X120822511Y-58549012D01*
X122600510Y-52002308D02*
X122600512Y-56123947D01*
X121889311Y-51767262D02*
X121889311Y-57189849D01*
X120111311Y-50994564D02*
X120111311Y-59348443D01*
X126145593Y-49992850D02*
X123714467Y-51396460D01*
X128324329Y-44628840D02*
X120310131Y-49255840D01*
X127880330Y-46117019D02*
X121517691Y-49790489D01*
X127704423Y-46629189D02*
X121863488Y-50001455D01*
X122244901Y-51888059D02*
G75*
G03*
X122824531Y-50678431I-2844801J2106859D01*
G01*
X120466892Y-51183562D02*
G75*
G03*
X121151822Y-49591112I-1066792J1402362D01*
G01*
X127880373Y-46117001D02*
G75*
G02*
X120466911Y-58957435I-8480273J-3664199D01*
G01*
X120111290Y-50994529D02*
G75*
G03*
X120756313Y-49408849I-711190J1213329D01*
G01*
X128188709Y-45117754D02*
G75*
G02*
X119755711Y-59724083I-8788609J-4663446D01*
G01*
X123667307Y-52314303D02*
G75*
G03*
X124000451Y-51641960I-4267007J2533003D01*
G01*
X121889300Y-51767253D02*
G75*
G03*
X122514132Y-50447028I-2489200J1986053D01*
G01*
X121533698Y-51638608D02*
G75*
G03*
X122194529Y-50220940I-2133598J1857408D01*
G01*
X127511253Y-47151338D02*
G75*
G02*
X121178111Y-58120604I-8111153J-2629862D01*
G01*
X120822494Y-51349981D02*
G75*
G03*
X121517691Y-49790489I-1422394J1568781D01*
G01*
X127704466Y-46629173D02*
G75*
G02*
X120822511Y-58549012I-8304366J-3152027D01*
G01*
X122956103Y-52110948D02*
G75*
G03*
X123423655Y-51153749I-3556003J2329748D01*
G01*
X125735350Y-50640330D02*
G75*
G02*
X123311710Y-54838155I-6335250J859130D01*
G01*
X128041195Y-45613535D02*
G75*
G02*
X120111311Y-59348442I-8641095J-4167665D01*
G01*
X119755694Y-50769992D02*
G75*
G03*
X120310130Y-49255840I-355594J988792D01*
G01*
X127060792Y-48232639D02*
G75*
G02*
X121889311Y-57189849I-7660692J-1548561D01*
G01*
X121178094Y-51500365D02*
G75*
G03*
X121863488Y-50001455I-1777994J1719165D01*
G01*
X127297923Y-47685117D02*
G75*
G02*
X121533711Y-57668968I-7897823J-2096083D01*
G01*
X122600502Y-52002303D02*
G75*
G03*
X123127312Y-50914232I-3200402J2221103D01*
G01*
X126493288Y-49381512D02*
G75*
G02*
X122600512Y-56123946I-7093188J-399688D01*
G01*
X126145620Y-49992851D02*
G75*
G02*
X122956111Y-55517194I-6745520J211651D01*
G01*
X123311713Y-52214755D02*
G75*
G03*
X123714466Y-51396460I-3911313J2433355D01*
G01*
X126794902Y-48796763D02*
G75*
G02*
X122244912Y-56677522I-7394802J-984437D01*
G01*
G04 #@! TO.N,/3 PhB*
X115844112Y-55517194D02*
X115844111Y-52709971D01*
X117652241Y-50003941D02*
X110919892Y-46117017D01*
X117266512Y-57668970D02*
X117266512Y-52145169D01*
X115604519Y-51695970D02*
X112654628Y-49992850D01*
X118365981Y-49594797D02*
X110611556Y-45117778D01*
X113567497Y-51341116D02*
X114559700Y-53002321D01*
X116153146Y-51191497D02*
X112005356Y-48796767D01*
X117977711Y-58549010D02*
X117977710Y-51804480D01*
X115488511Y-54838155D02*
X115488512Y-52834894D01*
X116555311Y-56677522D02*
X116555311Y-52442597D01*
X117022295Y-50461465D02*
X111289009Y-47151350D01*
X116910911Y-57189850D02*
X116910910Y-52298278D01*
X118688912Y-59348442D02*
X118688911Y-51393332D01*
X115876411Y-51442334D02*
X112306964Y-49381513D01*
X116724773Y-50700301D02*
X111502339Y-47685127D01*
X115072811Y-52210211D02*
X113567497Y-51341116D01*
X117993742Y-49790495D02*
X110759071Y-45613557D01*
X117330325Y-50228694D02*
X111095798Y-46629189D01*
X115336826Y-51952028D02*
X113064893Y-50640326D01*
X118333310Y-58957436D02*
X118333311Y-51610494D01*
X119400110Y-60086041D02*
X119400111Y-50832040D01*
X117622113Y-58120607D02*
X117622110Y-51981428D01*
X119044512Y-59724084D02*
X119044510Y-51141943D01*
X116435566Y-50943940D02*
X111739468Y-48232646D01*
X116199711Y-56123947D02*
X116199711Y-52579479D01*
X118688912Y-59348440D02*
G75*
G02*
X110759072Y-45613557I711198J9567200D01*
G01*
X116153134Y-51191502D02*
G75*
G03*
X116910911Y-52298277I3246966J1410302D01*
G01*
X119044512Y-59724081D02*
G75*
G02*
X110611557Y-45117778I355598J9942841D01*
G01*
X117993694Y-49790495D02*
G75*
G03*
X119044510Y-51141943I1406406J9295D01*
G01*
X115488529Y-54838131D02*
G75*
G02*
X113064893Y-50640326I3911571J5056931D01*
G01*
X117266513Y-57668966D02*
G75*
G02*
X111502340Y-47685127I2133597J7887726D01*
G01*
X117330294Y-50228701D02*
G75*
G03*
X118333311Y-51610493I2069806J447501D01*
G01*
X116555311Y-56677521D02*
G75*
G02*
X112005356Y-48796767I2844799J6896281D01*
G01*
X116910912Y-57189847D02*
G75*
G02*
X111739468Y-48232646I2489198J7408607D01*
G01*
X115604530Y-51695965D02*
G75*
G03*
X116199711Y-52579479I3795570J1914665D01*
G01*
X116199711Y-56123948D02*
G75*
G02*
X112306964Y-49381513I3200399J6342708D01*
G01*
X115844131Y-55517163D02*
G75*
G02*
X112654629Y-49992850I3555969J5735963D01*
G01*
X116435559Y-50943943D02*
G75*
G03*
X117266512Y-52145169I2964441J1162643D01*
G01*
X117652204Y-50003946D02*
G75*
G03*
X118688911Y-51393331I1747896J222746D01*
G01*
X118333310Y-58957435D02*
G75*
G02*
X110919892Y-46117017I1066800J9176195D01*
G01*
X115336825Y-51952029D02*
G75*
G03*
X115844111Y-52709971I4063175J2170729D01*
G01*
X117622114Y-58120604D02*
G75*
G02*
X111289010Y-47151350I1777996J8339364D01*
G01*
X117977711Y-58549010D02*
G75*
G02*
X111095799Y-46629189I1422399J8767770D01*
G01*
X117022269Y-50461472D02*
G75*
G03*
X117977710Y-51804479I2377831J680272D01*
G01*
X118365926Y-49594787D02*
G75*
G03*
X119400111Y-50832040I1034174J-186413D01*
G01*
X115876415Y-51442332D02*
G75*
G03*
X116555311Y-52442597I3523785J1661132D01*
G01*
X116724751Y-50700308D02*
G75*
G03*
X117622110Y-51981428I2675349J919108D01*
G01*
X115072804Y-52210215D02*
G75*
G03*
X115488513Y-52834893I4327396J2429115D01*
G01*
G04 #@! TO.N,/3 PhC*
X120081181Y-48156189D02*
X126813531Y-44269266D01*
X111986692Y-44269266D02*
X118349332Y-47942738D01*
X120095280Y-48558662D02*
X127329951Y-44381723D01*
X119551795Y-45176938D02*
X121823728Y-43865237D01*
X120965526Y-43950110D02*
X119030779Y-43978782D01*
X119999928Y-47381878D02*
X125733215Y-44071765D01*
X119941850Y-47004797D02*
X125164284Y-43989624D01*
X110967156Y-44501859D02*
X118399508Y-48792931D01*
X116976494Y-43865238D02*
X118711370Y-44866869D01*
X119875458Y-46632519D02*
X124571555Y-43921225D01*
X110475893Y-44628840D02*
X118490093Y-49255841D01*
X119723411Y-45899079D02*
X123292858Y-43838259D01*
X113635938Y-43989624D02*
X118419690Y-46751524D01*
X120047498Y-47765026D02*
X126282024Y-44165520D01*
X114228666Y-43921224D02*
X118464891Y-46367010D01*
X115507366Y-43838258D02*
X118576966Y-45610493D01*
X119639703Y-45536797D02*
X122589593Y-43833678D01*
X119460210Y-44819205D02*
X120965526Y-43950110D01*
X111470272Y-44381722D02*
X118359599Y-48359278D01*
X119802275Y-46264159D02*
X123950069Y-43869430D01*
X114850155Y-43869430D02*
X118517710Y-45986894D01*
X113067008Y-44071764D02*
X118383692Y-47141355D01*
X112518200Y-44165521D02*
X118359135Y-47537786D01*
X116210629Y-43833677D02*
X118641755Y-45237288D01*
X120078638Y-48978881D02*
X127833067Y-44501861D01*
X119999925Y-47381890D02*
G75*
G03*
X118359135Y-47537786I-599825J-2399410D01*
G01*
X111470270Y-44381721D02*
G75*
G02*
X127329951Y-44381723I7929840J-5399519D01*
G01*
X116210625Y-43833669D02*
G75*
G02*
X122589593Y-43833678I3189475J-5947531D01*
G01*
X110967155Y-44501858D02*
G75*
G02*
X127833067Y-44501861I8432955J-5279382D01*
G01*
X115507360Y-43838248D02*
G75*
G02*
X123292858Y-43838260I3892740J-5942952D01*
G01*
X120047496Y-47765033D02*
G75*
G03*
X118349332Y-47942739I-647396J-2016167D01*
G01*
X116976491Y-43865230D02*
G75*
G02*
X121823728Y-43865237I2423609J-5915970D01*
G01*
X119941849Y-47004804D02*
G75*
G03*
X118383692Y-47141355I-541749J-2776396D01*
G01*
X120095277Y-48558667D02*
G75*
G03*
X118399508Y-48792931I-695177J-1222533D01*
G01*
X113635939Y-43989625D02*
G75*
G02*
X125164283Y-43989625I5764172J-5791611D01*
G01*
X120078633Y-48978887D02*
G75*
G03*
X118490094Y-49255841I-678533J-802313D01*
G01*
X114228658Y-43921215D02*
G75*
G02*
X124571555Y-43921225I5171442J-5859985D01*
G01*
X119802274Y-46264164D02*
G75*
G03*
X118464891Y-46367010I-402174J-3517136D01*
G01*
X119875457Y-46632522D02*
G75*
G03*
X118419690Y-46751525I-475357J-3148678D01*
G01*
X114850155Y-43869430D02*
G75*
G02*
X123950069Y-43869430I4549957J-5911807D01*
G01*
X119639703Y-45536803D02*
G75*
G03*
X118576966Y-45610493I-239603J-4244597D01*
G01*
X119460210Y-44819203D02*
G75*
G03*
X118711370Y-44866869I-60110J-4961697D01*
G01*
X119723411Y-45899083D02*
G75*
G03*
X118517710Y-45986895I-323311J-3882117D01*
G01*
X112518186Y-44165509D02*
G75*
G02*
X126282023Y-44165520I6881914J-5615691D01*
G01*
X120081178Y-48156197D02*
G75*
G03*
X118359599Y-48359278I-681078J-1625003D01*
G01*
X119551795Y-45176944D02*
G75*
G03*
X118641755Y-45237288I-151695J-4604556D01*
G01*
X111986692Y-44269266D02*
G75*
G02*
X126813531Y-44269266I7413419J-5511977D01*
G01*
X113066997Y-44071754D02*
G75*
G02*
X125733214Y-44071766I6333103J-5709446D01*
G01*
G04 #@! TO.N,/3-6 PhA*
X162408608Y-52450858D02*
X159722031Y-52450858D01*
X163339366Y-51739658D02*
X158490197Y-51739658D01*
X163767770Y-51384058D02*
X157874280Y-51384058D01*
X158490197Y-51739658D02*
X160791615Y-55725831D01*
X161896282Y-52806458D02*
X160337949Y-52806458D01*
X159722031Y-52450858D02*
X160911809Y-54511614D01*
X165304799Y-49961658D02*
X156050799Y-49961658D01*
X159106114Y-52095258D02*
X160860014Y-55133102D01*
X155802359Y-50640186D02*
X160279379Y-58394613D01*
X160337949Y-52806458D02*
X160959120Y-53402158D01*
X164176195Y-51028458D02*
X157258362Y-51028458D01*
X156222578Y-50656828D02*
X160399517Y-57891498D01*
X164567201Y-50672858D02*
X156642445Y-50672858D01*
X157874280Y-51384058D02*
X160709475Y-56294761D01*
X156642445Y-50672858D02*
X160511973Y-57375077D01*
X164942842Y-50317258D02*
X156360701Y-50317258D01*
X162887727Y-52095258D02*
X159106114Y-52095258D01*
X157258362Y-51028458D02*
X160615719Y-56843570D01*
X155802379Y-50640203D02*
G75*
G03*
X156050799Y-49961658I-802379J678503D01*
G01*
X162887709Y-52095253D02*
G75*
G02*
X160791615Y-55725831I-7887709J2133553D01*
G01*
X156222586Y-50656833D02*
G75*
G03*
X156360700Y-50317258I-1222586J695133D01*
G01*
X163339343Y-51739653D02*
G75*
G02*
X160709475Y-56294761I-8339343J1777953D01*
G01*
X163767744Y-51384054D02*
G75*
G02*
X160615719Y-56843570I-8767744J1422354D01*
G01*
X164176167Y-51028455D02*
G75*
G02*
X160511973Y-57375077I-9176167J1066755D01*
G01*
X162408594Y-52450853D02*
G75*
G02*
X160860013Y-55133101I-7408594J2489153D01*
G01*
X164942808Y-50317257D02*
G75*
G02*
X160279378Y-58394612I-9942808J355557D01*
G01*
X164567169Y-50672856D02*
G75*
G02*
X160399517Y-57891498I-9567169J711156D01*
G01*
X161896272Y-52806454D02*
G75*
G02*
X160911809Y-54511614I-6896272J2844754D01*
G01*
G04 #@! TO.N,/3-6 PhB*
X155205305Y-52450858D02*
X151847948Y-58265970D01*
X155205305Y-53873258D02*
X152903887Y-57859431D01*
X159663462Y-58750213D02*
X155372391Y-51317860D01*
X155205305Y-51739658D02*
X151335777Y-58441877D01*
X158664221Y-58441877D02*
X155205305Y-52450858D01*
X156548593Y-57622302D02*
X155205305Y-55295658D01*
X155205305Y-55295658D02*
X154015527Y-57356414D01*
X158152050Y-58265970D02*
X155205305Y-53162058D01*
X159167683Y-58602698D02*
X155205305Y-51739658D01*
X154813557Y-50995786D02*
X150336536Y-58750213D01*
X157629889Y-58072761D02*
X155205305Y-53873258D01*
X160152399Y-58885877D02*
X155525399Y-50871677D01*
X155009254Y-51368028D02*
X150832315Y-58602698D01*
X155205305Y-53162058D02*
X152370109Y-58072761D01*
X155205305Y-54584458D02*
X153451405Y-57622302D01*
X155984471Y-57356414D02*
X155205305Y-56006858D01*
X155205305Y-56006858D02*
X154999999Y-56842658D01*
X157096111Y-57859431D02*
X155205305Y-54584458D01*
X158152050Y-58265970D02*
G75*
G02*
X151847948Y-58265970I-3152051J8304306D01*
G01*
X155984471Y-57356413D02*
G75*
G02*
X154015527Y-57356413I-984472J7394766D01*
G01*
X156548593Y-57622302D02*
G75*
G02*
X153451405Y-57622302I-1548594J7660665D01*
G01*
X159663462Y-58750213D02*
G75*
G02*
X150336536Y-58750213I-4663463J8788557D01*
G01*
X157629889Y-58072761D02*
G75*
G02*
X152370109Y-58072761I-2629890J8111097D01*
G01*
X157096111Y-57859430D02*
G75*
G02*
X152903887Y-57859430I-2096112J7897762D01*
G01*
X155009254Y-51368025D02*
G75*
G03*
X155372391Y-51317860I-9254J1406425D01*
G01*
X154813556Y-50995789D02*
G75*
G03*
X155525399Y-50871676I186444J1034089D01*
G01*
X158664221Y-58441877D02*
G75*
G02*
X151335777Y-58441877I-3664222J8480214D01*
G01*
X159167683Y-58602697D02*
G75*
G02*
X150832315Y-58602697I-4167684J8641040D01*
G01*
G04 #@! TO.N,/3-6 PhC*
X152331024Y-51739658D02*
X146660632Y-51739658D01*
X149600481Y-57891498D02*
X153562859Y-51028458D01*
X149088189Y-54511614D02*
X149867355Y-53162058D01*
X150483272Y-52806458D02*
X148103716Y-52806458D01*
X149139984Y-55133102D02*
X150483272Y-52806458D01*
X151099190Y-52450858D02*
X147591390Y-52450858D01*
X153562859Y-51028458D02*
X145823803Y-51028458D01*
X149208383Y-55725831D02*
X151099190Y-52450858D01*
X149720619Y-58394613D02*
X154011689Y-50962260D01*
X149488025Y-57375077D02*
X152946941Y-51384058D01*
X154011197Y-50317258D02*
X145057156Y-50317258D01*
X149847599Y-58885877D02*
X154474599Y-50871677D01*
X152946941Y-51384058D02*
X146232228Y-51384058D01*
X151715107Y-52095258D02*
X147112271Y-52095258D01*
X149867355Y-53162058D02*
X149040878Y-53402158D01*
X153786675Y-50672858D02*
X145432797Y-50672858D01*
X149290523Y-56294761D02*
X151715107Y-52095258D01*
X149384279Y-56843570D02*
X152331024Y-51739658D01*
X149088181Y-54511620D02*
G75*
G02*
X148103716Y-52806458I5911819J4549920D01*
G01*
X154011219Y-50317250D02*
G75*
G03*
X154474599Y-50871676I988781J355550D01*
G01*
X149384262Y-56843590D02*
G75*
G02*
X146232228Y-51384058I5615738J6881890D01*
G01*
X149290508Y-56294778D02*
G75*
G02*
X146660633Y-51739658I5709492J6333078D01*
G01*
X149488008Y-57375100D02*
G75*
G02*
X145823804Y-51028458I5511992J7413400D01*
G01*
X149139974Y-55133111D02*
G75*
G02*
X147591391Y-52450858I5860026J5171411D01*
G01*
X149600480Y-57891499D02*
G75*
G02*
X145432798Y-50672858I5399520J7929839D01*
G01*
X153786683Y-50672853D02*
G75*
G03*
X154011690Y-50962259I1213317J711153D01*
G01*
X149720618Y-58394614D02*
G75*
G02*
X145057157Y-50317258I5279382J8432954D01*
G01*
X149208370Y-55725844D02*
G75*
G02*
X147112272Y-52095258I5791630J5764144D01*
G01*
G04 #@! TO.N,/3-6 PhD*
X152741636Y-48894858D02*
X149384279Y-43079746D01*
X153777420Y-49266488D02*
X149600481Y-42031818D01*
X151509801Y-48183658D02*
X149208383Y-44197485D01*
X145057156Y-49606058D02*
X153639297Y-49606058D01*
X152125718Y-48539258D02*
X149290523Y-43628555D01*
X145823803Y-48894858D02*
X152741636Y-48894858D01*
X146232228Y-48539258D02*
X152125718Y-48539258D01*
X146660632Y-48183658D02*
X151509801Y-48183658D01*
X150277967Y-47472458D02*
X149088189Y-45411702D01*
X154197639Y-49283130D02*
X149720619Y-41528703D01*
X148103716Y-47116858D02*
X149662049Y-47116858D01*
X153357553Y-49250458D02*
X149488025Y-42548239D01*
X149662049Y-47116858D02*
X149040878Y-46521158D01*
X147591390Y-47472458D02*
X150277967Y-47472458D01*
X144695199Y-49961658D02*
X153949199Y-49961658D01*
X147112271Y-47828058D02*
X150893884Y-47828058D01*
X145432797Y-49250458D02*
X153357553Y-49250458D01*
X150893884Y-47828058D02*
X149139984Y-44790214D01*
X145057122Y-49606057D02*
G75*
G02*
X149720619Y-41528703I9942878J-355643D01*
G01*
X148103729Y-47116863D02*
G75*
G02*
X149088189Y-45411702I6896271J-2844737D01*
G01*
X153777429Y-49266493D02*
G75*
G03*
X153639298Y-49606058I1222571J-695207D01*
G01*
X147112296Y-47828065D02*
G75*
G02*
X149208383Y-44197485I7887704J-2133535D01*
G01*
X147591377Y-47472454D02*
G75*
G02*
X149139985Y-44790215I7408623J-2489246D01*
G01*
X154197660Y-49283148D02*
G75*
G03*
X153949199Y-49961658I802340J-678552D01*
G01*
X146660612Y-48183654D02*
G75*
G02*
X149290523Y-43628555I8339388J-1778046D01*
G01*
X146232204Y-48539254D02*
G75*
G02*
X149384280Y-43079747I8767796J-1422446D01*
G01*
X145823775Y-48894855D02*
G75*
G02*
X149488025Y-42548239I9176225J-1066845D01*
G01*
X145432766Y-49250456D02*
G75*
G02*
X149600481Y-42031818I9567234J-711244D01*
G01*
G04 #@! TO.N,/3-6 PhE*
X153451405Y-42301014D02*
X154794693Y-44627658D01*
X151847948Y-41657346D02*
X154794693Y-46761258D01*
X150336536Y-41173103D02*
X154627607Y-48605456D01*
X154794693Y-46050058D02*
X157096111Y-42063885D01*
X154794693Y-46761258D02*
X157629889Y-41850555D01*
X154794693Y-44627658D02*
X155984471Y-42566902D01*
X154990744Y-48555288D02*
X159167683Y-41320618D01*
X154794693Y-48183658D02*
X158664221Y-41481439D01*
X154794693Y-43916458D02*
X154999999Y-43080658D01*
X154794693Y-47472458D02*
X158152050Y-41657346D01*
X154015527Y-42566902D02*
X154794693Y-43916458D01*
X152903887Y-42063885D02*
X154794693Y-45338858D01*
X151335777Y-41481439D02*
X154794693Y-47472458D01*
X154794693Y-45338858D02*
X156548593Y-42301014D01*
X150832315Y-41320618D02*
X154794693Y-48183658D01*
X149847599Y-41037439D02*
X154474599Y-49051639D01*
X155186441Y-48927530D02*
X159663462Y-41173103D01*
X152370109Y-41850555D02*
X154794693Y-46050058D01*
X152370109Y-41850555D02*
G75*
G02*
X157629889Y-41850555I2629890J-8111097D01*
G01*
X155186440Y-48927535D02*
G75*
G03*
X154474599Y-49051639I-186440J-1034165D01*
G01*
X152903887Y-42063886D02*
G75*
G02*
X157096111Y-42063886I2096112J-7897762D01*
G01*
X150832315Y-41320619D02*
G75*
G02*
X159167683Y-41320619I4167684J-8641040D01*
G01*
X151847948Y-41657346D02*
G75*
G02*
X158152050Y-41657346I3152051J-8304306D01*
G01*
X151335777Y-41481439D02*
G75*
G02*
X158664221Y-41481439I3664222J-8480214D01*
G01*
X154990744Y-48555290D02*
G75*
G03*
X154627607Y-48605456I9256J-1406410D01*
G01*
X154015527Y-42566903D02*
G75*
G02*
X155984471Y-42566903I984472J-7394766D01*
G01*
X153451405Y-42301014D02*
G75*
G02*
X156548593Y-42301014I1548594J-7660665D01*
G01*
X150336536Y-41173103D02*
G75*
G02*
X159663462Y-41173103I4663463J-8788557D01*
G01*
G04 #@! TO.N,/3-6 PhF*
X160860014Y-44790214D02*
X159516726Y-47116858D01*
X156437139Y-48894858D02*
X164176195Y-48894858D01*
X157668974Y-48183658D02*
X163339366Y-48183658D01*
X158284891Y-47828058D02*
X162887727Y-47828058D01*
X156213323Y-49250458D02*
X164567201Y-49250458D01*
X157053057Y-48539258D02*
X163767770Y-48539258D01*
X159516726Y-47116858D02*
X161896282Y-47116858D01*
X160132643Y-46761258D02*
X160959120Y-46521158D01*
X160152399Y-41037439D02*
X155525399Y-49051639D01*
X160399517Y-42031818D02*
X156437139Y-48894858D01*
X160511973Y-42548239D02*
X157053057Y-48539258D01*
X160791615Y-44197485D02*
X158900808Y-47472458D01*
X160709475Y-43628555D02*
X158284891Y-47828058D01*
X155988801Y-49606058D02*
X164942842Y-49606058D01*
X158900808Y-47472458D02*
X162408608Y-47472458D01*
X160911809Y-45411702D02*
X160132643Y-46761258D01*
X160279379Y-41528703D02*
X155988309Y-48961056D01*
X160615719Y-43079746D02*
X157668974Y-48183658D01*
X156213313Y-49250464D02*
G75*
G03*
X155988309Y-48961056I-1213313J-711136D01*
G01*
X160511955Y-42548263D02*
G75*
G02*
X164176195Y-48894858I-5511955J-7413437D01*
G01*
X155988821Y-49606051D02*
G75*
G03*
X155525399Y-49051639I-988821J-355649D01*
G01*
X160279377Y-41528706D02*
G75*
G02*
X164942841Y-49606058I-5279377J-8432954D01*
G01*
X160399499Y-42031844D02*
G75*
G02*
X164567201Y-49250458I-5399499J-7929856D01*
G01*
X160615702Y-43079767D02*
G75*
G02*
X163767769Y-48539258I-5615702J-6881933D01*
G01*
X160709460Y-43628571D02*
G75*
G02*
X163339366Y-48183658I-5709460J-6333129D01*
G01*
X160791633Y-44197467D02*
G75*
G02*
X162887727Y-47828058I-5791633J-5764133D01*
G01*
X160911820Y-45411694D02*
G75*
G02*
X161896282Y-47116858I-5911820J-4549906D01*
G01*
X160860002Y-44790224D02*
G75*
G02*
X162408608Y-47472458I-5860002J-5171476D01*
G01*
G04 #@! TD*
M02*
