G04 #@! TF.GenerationSoftware,KiCad,Pcbnew,(6.0.5)*
G04 #@! TF.CreationDate,2022-07-10T09:17:23-07:00*
G04 #@! TF.ProjectId,micro-motor-proto-01,6d696372-6f2d-46d6-9f74-6f722d70726f,rev?*
G04 #@! TF.SameCoordinates,Original*
G04 #@! TF.FileFunction,Profile,NP*
%FSLAX46Y46*%
G04 Gerber Fmt 4.6, Leading zero omitted, Abs format (unit mm)*
G04 Created by KiCad (PCBNEW (6.0.5)) date 2022-07-10 09:17:23*
%MOMM*%
%LPD*%
G01*
G04 APERTURE LIST*
G04 #@! TA.AperFunction,Profile*
%ADD10C,0.100000*%
G04 #@! TD*
G04 APERTURE END LIST*
D10*
X174250000Y-84000000D02*
X29750000Y-84000000D01*
X29750000Y-84000000D02*
X29750000Y-31000000D01*
X29750000Y-31000000D02*
X174250000Y-31000000D01*
X174250000Y-31000000D02*
X174250000Y-84000000D01*
X156499999Y-63211658D02*
G75*
G03*
X156499999Y-63211658I-1500000J0D01*
G01*
X167974836Y-56586658D02*
G75*
G03*
X167974836Y-56586658I-1500000J0D01*
G01*
X75904275Y-59369165D02*
G75*
G03*
X75904275Y-59369165I-1500001J0D01*
G01*
X62923552Y-49998615D02*
G75*
G03*
X62923552Y-49998615I-1499999J0D01*
G01*
X94642603Y-40630835D02*
G75*
G03*
X94642603Y-40630835I-1499999J0D01*
G01*
X156499999Y-36711658D02*
G75*
G03*
X156499999Y-36711658I-1500000J0D01*
G01*
X75904274Y-40630835D02*
G75*
G03*
X75904274Y-40630835I-1500000J0D01*
G01*
X167974836Y-43336658D02*
G75*
G03*
X167974836Y-43336658I-1500000J0D01*
G01*
X49673553Y-63248616D02*
G75*
G03*
X49673553Y-63248616I-1500000J0D01*
G01*
X132374950Y-56406242D02*
G75*
G03*
X132374950Y-56406242I-1500002J0D01*
G01*
X94642605Y-59369165D02*
G75*
G03*
X94642605Y-59369165I-1500001J0D01*
G01*
X120900112Y-36531241D02*
G75*
G03*
X120900112Y-36531241I-1500001J0D01*
G01*
X36423552Y-49998615D02*
G75*
G03*
X36423552Y-49998615I-1500000J0D01*
G01*
X109425274Y-56406240D02*
G75*
G03*
X109425274Y-56406240I-1500000J0D01*
G01*
X145025162Y-56586658D02*
G75*
G03*
X145025162Y-56586658I-1500000J0D01*
G01*
X145025162Y-43336658D02*
G75*
G03*
X145025162Y-43336658I-1500000J0D01*
G01*
X49673553Y-36748615D02*
G75*
G03*
X49673553Y-36748615I-1500000J0D01*
G01*
M02*
